<?xml version="1.0" encoding="UTF-8" standalone="no"?>
<!-- Created with Inkscape (http://www.inkscape.org/) -->

<svg
   xmlns:dc="http://purl.org/dc/elements/1.1/"
   xmlns:cc="http://creativecommons.org/ns#"
   xmlns:rdf="http://www.w3.org/1999/02/22-rdf-syntax-ns#"
   xmlns:svg="http://www.w3.org/2000/svg"
   xmlns="http://www.w3.org/2000/svg"
   xmlns:sodipodi="http://sodipodi.sourceforge.net/DTD/sodipodi-0.dtd"
   xmlns:inkscape="http://www.inkscape.org/namespaces/inkscape"
   width="151.34166mm"
   height="46.037498mm"
   viewBox="0 0 151.34166 46.037498"
   version="1.1"
   id="svg8"
   inkscape:version="0.92.5 (2060ec1f9f, 2020-04-08)"
   sodipodi:docname="pop mart svg.svg">
  <defs
     id="defs2">
    <clipPath
       id="cp1"
       clipPathUnits="userSpaceOnUse">
      <path
         id="path817"
         d="M 4840.92,-1380.41 V 9479.2 H -3301.09 V -1380.41 Z"
         inkscape:connector-curvature="0" />
    </clipPath>
  </defs>
  <sodipodi:namedview
     id="base"
     pagecolor="#ffffff"
     bordercolor="#666666"
     borderopacity="1.0"
     inkscape:pageopacity="0.0"
     inkscape:pageshadow="2"
     inkscape:zoom="1.4"
     inkscape:cx="189.15592"
     inkscape:cy="105.91118"
     inkscape:document-units="mm"
     inkscape:current-layer="layer1"
     showgrid="false"
     inkscape:window-width="1920"
     inkscape:window-height="1009"
     inkscape:window-x="1912"
     inkscape:window-y="-8"
     inkscape:window-maximized="1"
     fit-margin-top="0"
     fit-margin-left="0"
     fit-margin-right="0"
     fit-margin-bottom="0" />
  <metadata
     id="metadata5">
    <rdf:RDF>
      <cc:Work
         rdf:about="">
        <dc:format>image/svg+xml</dc:format>
        <dc:type
           rdf:resource="http://purl.org/dc/dcmitype/StillImage" />
        <dc:title></dc:title>
      </cc:Work>
    </rdf:RDF>
  </metadata>
  <g
     inkscape:label="Layer 1"
     inkscape:groupmode="layer"
     id="layer1"
     transform="translate(220.52075,-170.0926)">
    <g
       clip-path="url(#cp1)"
       id="Clip-Path: Page 1"
       transform="matrix(0.09856181,0,0,0.09822381,-220.5996,170.04349)"
       style="stroke-width:2.68905497">
      <g
         id="Page 1"
         style="stroke-width:2.68905497">
        <path
           d="M 1536.3,0.5 V 469.2 H 0.8 V 0.5 Z"
           class="s0"
           id="Path 18"
           inkscape:connector-curvature="0"
           style="fill:#d1001f;fill-opacity:1;fill-rule:evenodd;stroke-width:2.68905497" />
        <path
           d="m 234.6,157.2 v 37.6 c 0,43.1 -34.8,78 -77.9,78 h -26 V 391.2 H 78.8 V 78.5 h 77.9 c 43.1,0 77.9,35.6 77.9,78.7 z m -51.9,0 c 0,-14.4 -11.6,-26 -26,-26 h -26 v 89.6 h 26 c 14.4,0 26,-11.6 26,-26 z m 416.3,0 v 37.6 c 0,43.2 -34.9,78.1 -77.9,78.1 h -26 v 118.3 h -52 V 78.5 h 78 c 43,0 77.9,35.6 77.9,78.7 z m -51.9,0 c 0,-14.4 -11.7,-26 -26,-26 h -26 v 89.7 h 26 c 14.3,0 26,-11.7 26,-26.1 z"
           class="s1"
           id="Path 20"
           inkscape:connector-curvature="0"
           style="fill:#ffffff;fill-rule:evenodd;stroke-width:2.68905497" />
        <path
           d="m 417.2,157.2 v 156 c 0,44.5 -36.9,80.1 -81.4,78 -42.4,-2.1 -74.5,-38.3 -74.5,-80.7 V 159.2 c 0,-42.4 32.1,-78.7 74.5,-80.7 44.5,-1.4 81.4,34.2 81.4,78.7 z m -52,0 c 0,-15.8 -13,-27.4 -28.7,-26 -13.7,0.7 -23.2,13 -23.2,27.3 v 153.3 c 0,13.7 9.5,26 23.2,27.4 15.7,1.4 28.7,-11 28.7,-26 z m 546.2,-78 V 391.9 H 859.5 V 241.4 L 826,339.2 h -37.6 l -32.8,-97.8 v 150.5 h -52 V 79.2 h 52 l 51.9,153.3 52,-153.3 z m 360.2,176.5 30.1,136.2 h -51.9 l -26,-119.1 h -26 v 119.1 h -51.9 V 79.2 h 77.9 c 43.1,0 77.9,34.9 77.9,78 v 37.6 c 0,24.7 -11.6,47.2 -30.1,60.9 z m -21.8,-98.5 c 0,-14.4 -11.7,-26 -26,-26 h -26 v 89.6 h 26 c 14.3,0 26,-11.6 26,-26 z"
           class="s1"
           id="Path 21"
           inkscape:connector-curvature="0"
           style="fill:#ffffff;fill-rule:evenodd;stroke-width:2.68905497" />
        <path
           d="m 1119.9,391.2 h -52.6 l -8.2,-52 h -60.9 l -8.8,52 h -52 l 52,-312.7 h 77.9 z m -69.1,-104 -21.8,-130 -21.2,130 z M 1458.2,79.1 v 52.1 h -45.1 v 260 h -52 v -260 h -45.8 V 79.1 Z"
           class="s1"
           id="Path 22"
           inkscape:connector-curvature="0"
           style="fill:#ffffff;fill-rule:evenodd;stroke-width:2.68905497" />
      </g>
    </g>
  </g>
  <style
     id="style822">
		.s0 { fill: #db2f24 } 
		.s1 { fill: #ffffff } 
	</style>
</svg>
